<?xml version="1.0" standalone="no"?>
<!DOCTYPE svg PUBLIC "-//W3C//DTD SVG 20010904//EN"
 "http://www.w3.org/TR/2001/REC-SVG-20010904/DTD/svg10.dtd">
<svg version="1.0" xmlns="http://www.w3.org/2000/svg"
 width="260.000000pt" height="260.000000pt" viewBox="0 0 260.000000 260.000000"
 preserveAspectRatio="xMidYMid meet">
<metadata>
Created by potrace 1.11, written by Peter Selinger 2001-2013
</metadata>
<g transform="translate(0.000000,260.000000) scale(0.100000,-0.100000)"
fill="#000000" stroke="none">
<path d="M373 2427 c-2 -4 -6 -17 -8 -30 -5 -31 -54 -374 -61 -422 -2 -22 -7
-51 -9 -65 -2 -14 -7 -45 -10 -70 -3 -25 -8 -56 -11 -70 -2 -14 -6 -45 -9 -70
-3 -25 -7 -56 -10 -70 -3 -14 -7 -43 -10 -65 -2 -22 -16 -121 -30 -220 -15
-99 -28 -191 -30 -205 -2 -14 -6 -44 -9 -67 -3 -24 -8 -60 -11 -81 -3 -21 -7
-47 -9 -57 -2 -11 -7 -49 -11 -85 -4 -36 -9 -67 -10 -70 -2 -3 -6 -30 -10 -60
-3 -30 -8 -64 -10 -75 -2 -11 -7 -42 -10 -70 -3 -27 -12 -90 -20 -140 -8 -49
-17 -110 -20 -135 -3 -25 -7 -58 -10 -75 -3 -16 -7 -47 -10 -68 l-5 -37 165 0
165 0 1 33 c0 17 2 41 4 52 8 40 23 171 29 240 1 11 4 25 8 30 5 8 266 12 354
6 7 -1 16 -45 24 -109 18 -152 20 -174 25 -197 2 -11 4 -28 4 -37 1 -16 16
-18 177 -18 l176 0 -6 43 c-4 24 -9 55 -11 68 -5 31 -12 81 -20 144 -3 28 -10
73 -15 100 -5 28 -12 73 -15 100 -3 28 -7 61 -10 75 -2 14 -7 43 -10 65 -5 38
-34 237 -40 280 -1 11 -5 38 -9 60 -3 22 -8 56 -10 75 -3 19 -19 132 -36 250
-17 118 -33 231 -36 250 -2 19 -6 49 -9 65 -2 17 -7 48 -10 70 -3 22 -7 54
-10 70 -27 178 -34 232 -39 272 -3 22 -7 52 -10 65 -3 12 -8 43 -11 68 -3 25
-7 59 -10 75 -2 17 -7 48 -10 69 -3 22 -8 42 -10 45 -9 8 -457 7 -462 -2z
m231 -557 c4 -30 9 -71 11 -90 3 -19 7 -60 10 -90 4 -30 8 -66 10 -80 6 -38
14 -100 19 -145 3 -22 10 -80 16 -130 6 -49 13 -110 16 -135 3 -25 7 -56 9
-70 3 -14 7 -52 10 -85 4 -33 8 -67 10 -75 2 -8 7 -46 11 -85 3 -38 8 -73 11
-77 5 -10 11 -10 -140 -11 -71 -1 -133 1 -138 4 -8 5 -5 46 16 199 2 19 7 60
10 90 4 30 8 66 10 80 6 39 14 101 20 150 3 25 8 63 10 85 11 82 15 111 20
160 3 28 8 68 11 90 3 22 7 51 9 65 3 21 9 70 20 155 1 11 3 29 4 39 2 33 8
14 15 -44z"/>
<path d="M1399 2428 c-1 -2 -2 -522 -3 -1155 l-1 -1153 177 0 178 0 1 558 c1
469 3 551 14 517 23 -73 297 -973 317 -1043 l9 -32 191 0 c148 0 189 3 185 13
-2 6 -25 75 -50 152 -100 311 -271 835 -299 920 l-30 90 72 205 c39 113 89
256 110 318 22 61 58 165 81 230 23 64 61 173 85 241 24 68 44 127 44 132 0 5
-82 9 -183 9 l-183 0 -82 -252 c-46 -139 -127 -388 -182 -553 l-99 -300 -1
553 0 552 -175 0 c-96 0 -176 -1 -176 -2z"/>
</g>
</svg>
